<svg width="133.8576171875px" height="134.0275390625px" xmlns="http://www.w3.org/2000/svg" viewBox="183.07119140625 7.986230468749994 133.8576171875 134.0275390625" style="background: rgb(253, 253, 253);" preserveAspectRatio="xMidYMid"><defs><linearGradient id="editing-outline-gradient" x1="0.7923717047227371" x2="0.2076282952772629" y1="1.4563047559630353" y2="-0.4563047559630353"><stop offset="0" stop-color="#6db6e8"></stop><stop offset="1" stop-color="#af4ba0"></stop></linearGradient><filter id="editing-outline" x="-100%" y="-100%" width="300%" height="300%"><feMorphology in="SourceGraphic" operator="dilate" radius="3" result="outline"></feMorphology><feComposite operator="out" in="outline" in2="SourceAlpha"></feComposite></filter></defs><g filter="url(#editing-outline)"><g transform="translate(206.05500316619873, 99.21500015258789)"><path d="M24.89-27.17L24.89-27.17L24.89-8.58L24.89-8.58Q24.89 0.07 30.48 0.07L30.48 0.07L30.48 0.07Q32.18 0.07 33.02-0.46L33.02-0.46L33.41 0L33.41 0Q32.44 0.78 30.29 0.78L30.29 0.78L30.29 0.78Q24.05 0.78 24.05-8.58L24.05-8.58L24.05-10.01L24.05-10.01Q21.84-6.31 18.23-3.31L18.23-3.31L18.23-3.31Q14.63-0.33 11.44 0.98L11.44 0.98L11.44 0.98Q8.00-0.84 6.31-4.62L6.31-4.62L6.31-4.62Q4.62-8.38 4.62-13.39L4.62-13.39L4.62-13.39Q4.62-18.39 6.92-23.40L6.92-23.40L6.92-23.40Q9.23-28.41 13.52-31.53L13.52-31.53L13.52-31.53Q19.30-31.53 24.12-28.80L24.12-28.80L24.12-28.80Q24.44-32.05 26.26-34.32L26.26-34.32L26.85-34.00L26.85-34.00Q24.89-30.88 24.89-27.17ZM13.71-30.81L13.71-30.81Q9.75-27.69 7.64-22.95L7.64-22.95L7.64-22.95Q5.53-18.20 5.53-13.49L5.53-13.49L5.53-13.49Q5.53-8.78 7.02-5.17L7.02-5.17L7.02-5.17Q8.52-1.56 11.57 0.07L11.57 0.07L11.57 0.07Q14.56-1.10 18.36-4.39L18.36-4.39L18.36-4.39Q22.16-7.67 24.05-11.31L24.05-11.31L24.05-28.02L24.05-28.02Q19.24-30.81 13.71-30.81L13.71-30.81ZM41.53-29.64L41.53-29.64L41.53-7.15L41.53-7.15Q41.53-5.00 41.63-3.93L41.63-3.93L41.63-3.93Q41.73-2.86 42.22-1.72L42.22-1.72L42.22-1.72Q42.70-0.58 43.71-0.16L43.71-0.16L43.71-0.16Q44.72 0.26 46.44 0.26L46.44 0.26L46.44 0.26Q48.16 0.26 49.01-0.26L49.01-0.26L49.40 0.20L49.40 0.20Q48.42 0.98 46.28 0.98L46.28 0.98L46.28 0.98Q42.77 0.98 41.73-0.84L41.73-0.84L41.73-0.84Q40.69-2.67 40.69-6.96L40.69-6.96L40.69-29.38L40.69-29.38Q40.69-47.39 52.33-47.39L52.33-47.39L52.33-46.73L52.33-46.73Q41.53-46.73 41.53-29.64ZM74.75-33.61L74.75-8.58L74.75-8.58Q74.75 0.07 80.34 0.07L80.34 0.07L80.34 0.07Q82.03 0.07 82.88-0.46L82.88-0.46L83.27 0L83.27 0Q82.29 0.78 80.14 0.78L80.14 0.78L80.14 0.78Q73.91 0.78 73.91-8.58L73.91-8.58L73.91-10.01L73.91-10.01Q71.69-6.31 68.09-3.31L68.09-3.31L68.09-3.31Q64.48-0.33 61.30 0.98L61.30 0.98L61.30 0.98Q57.85-0.84 56.16-4.62L56.16-4.62L56.16-4.62Q54.47-8.38 54.47-13.39L54.47-13.39L54.47-13.39Q54.47-18.39 56.78-23.40L56.78-23.40L56.78-23.40Q59.08-28.41 63.38-31.53L63.38-31.53L63.38-31.53Q69.09-31.53 73.91-28.80L73.91-28.80L73.91-33.61L73.91-33.61Q73.91-42.45 71.37-44.98L71.37-44.98L71.37-44.98Q70.13-46.22 68.12-46.80L68.12-46.80L68.25-47.45L68.25-47.45Q72.67-46.41 73.84-42.25L73.84-42.25L73.84-42.25Q74.75-39 74.75-33.61L74.75-33.61ZM63.57-30.81L63.57-30.81Q59.60-27.69 57.49-22.95L57.49-22.95L57.49-22.95Q55.38-18.20 55.38-13.49L55.38-13.49L55.38-13.49Q55.38-8.78 56.88-5.17L56.88-5.17L56.88-5.17Q58.37-1.56 61.42 0.07L61.42 0.07L61.42 0.07Q64.41-1.10 68.22-4.39L68.22-4.39L68.22-4.39Q72.02-7.67 73.91-11.31L73.91-11.31L73.91-28.02L73.91-28.02Q69.09-30.81 63.57-30.81L63.57-30.81Z" fill="url(#editing-outline-gradient)"></path></g></g><style>text {
  font-size: 64px;
  font-family: Arial Black;
  dominant-baseline: central;
  text-anchor: middle;
}</style></svg>